# 3ds Max Wavefront OBJ Exporter v0.97b - (c)2007 guruware
# File Created: 22.08.2014 20:53:11

#
# object Mesh_002
#

v  0.9375 0.1875 0.0625
v  0.9375 1.0000 0.0625
v  0.0625 1.0000 0.0625
v  0.0625 0.1875 0.0625
v  1.0000 0.1875 -0.0000
v  0.0000 0.1875 -0.0000
v  0.0000 1.0000 -0.0000
v  1.0000 1.0000 -0.0000
v  1.0000 1.0000 1.0000
v  1.0000 0.1875 1.0000
v  0.0000 0.1875 1.0000
v  0.0000 1.0000 1.0000
v  0.0625 0.1875 1.0000
v  0.0625 1.0000 1.0000
v  0.9375 1.0000 1.0000
v  0.9375 0.1875 1.0000
# 16 vertices

vn -0.7071 0.0000 0.7071
vn 0.7071 0.0000 0.7071
vn 0.7071 0.0000 -0.7071
vn -0.7071 0.0000 -0.7071
# 4 vertex normals

vt 0.7500 0.2969 0.0000
vt 0.7500 0.5000 0.0000
vt 0.8750 0.5000 0.0000
vt 0.8750 0.2969 0.0000
vt 0.2500 0.2969 0.0000
vt 0.3750 0.2969 0.0000
vt 0.3750 0.5000 0.0000
vt 0.2500 0.5000 0.0000
vt 0.1250 0.5000 0.0000
vt 0.1250 0.2969 0.0000
vt 0.5000 0.2969 0.0000
vt 0.5000 0.5000 0.0000
vt 0.0000 0.2969 0.0000
vt 0.0078 0.2969 0.0000
vt 0.0078 0.5000 0.0000
vt 0.0000 0.5000 0.0000
vt 0.1172 0.5000 0.0000
vt 0.1172 0.2969 0.0000
vt 1.0000 0.2969 0.0000
vt 1.0000 0.5000 0.0000
vt 0.6250 0.5000 0.0000
vt 0.6250 0.2969 0.0000
# 22 texture coords

g Mesh_002
f 1/1/1 2/2/1 3/3/2 4/4/2 
f 5/5/3 6/6/4 7/7/4 8/8/3 
f 9/9/2 10/10/2 5/5/3 8/8/3 
f 7/7/4 6/6/4 11/11/1 12/12/1 
f 11/13/1 13/14/2 14/15/2 12/16/1 
f 9/9/2 15/17/1 16/18/1 10/10/2 
f 1/19/1 16/4/1 15/3/1 2/20/1 
f 3/21/2 14/2/2 13/1/2 4/22/2 
# 8 polygons

#
# object Mesh_001
#

v  0.0000 0.1875 1.0000
v  0.0000 0.1875 -0.0000
v  0.0000 0.0000 -0.0000
v  0.0000 0.0000 1.0000
v  1.0000 0.1875 -0.0000
v  1.0000 0.1875 1.0000
v  1.0000 0.0000 -0.0000
v  1.0000 0.0000 1.0000
# 8 vertices

vn -0.5773 0.5773 0.5773
vn -0.5773 0.5773 -0.5773
vn -0.5773 -0.5773 -0.5773
vn -0.5773 -0.5773 0.5773
vn 0.5773 0.5773 -0.5773
vn 0.5773 0.5773 0.5773
vn 0.5773 -0.5773 -0.5773
vn 0.5773 -0.5773 0.5773
# 8 vertex normals

vt 0.5000 0.2969 0.0000
vt 0.3750 0.2969 0.0000
vt 0.3750 0.2500 0.0000
vt 0.5000 0.2500 0.0000
vt 0.1250 0.2500 0.0000
vt 0.1250 0.0000 0.0000
vt 0.2500 0.0000 0.0000
vt 0.2500 0.2500 0.0000
vt 0.2500 0.2969 0.0000
vt 0.1250 0.2969 0.0000
vt 0.3750 0.0000 0.0000
vt 0.0000 0.2969 0.0000
vt 0.0000 0.2500 0.0000
# 13 texture coords

g Mesh_001
f 17/23/5 18/24/6 19/25/7 20/26/8 
f 21/27/9 18/28/6 17/29/5 22/30/10 
f 23/30/11 21/31/9 22/32/10 24/27/12 
f 20/25/8 19/30/7 23/29/11 24/33/12 
f 24/27/12 22/32/10 17/34/5 20/35/8 
f 18/24/6 21/31/9 23/30/11 19/25/7 
# 6 polygons

#
# object Mesh
#

v  0.9375 1.0000 1.0000
v  0.0625 1.0000 1.0000
v  0.0625 0.1875 1.0000
v  0.9375 0.1875 1.0000
# 4 vertices

vn 0.0000 0.0000 1.0000
# 1 vertex normals

vt 0.1172 0.5000 0.0000
vt 0.0078 0.5000 0.0000
vt 0.0078 0.2969 0.0000
vt 0.1172 0.2969 0.0000
# 4 texture coords

g Mesh
f 25/36/13 26/37/13 27/38/13 28/39/13 
# 1 polygons

